<?xml version="1.0" encoding="utf-8"?>
<!-- Generator: Adobe Illustrator 25.3.1, SVG Export Plug-In . SVG Version: 6.00 Build 0)  -->
<svg version="1.1" id="Layer_1" xmlns="http://www.w3.org/2000/svg" xmlns:xlink="http://www.w3.org/1999/xlink" x="0px" y="0px"
	 viewBox="0 0 456.6 99.4" style="enable-background:new 0 0 456.6 99.4;" xml:space="preserve">
<style type="text/css">
	.st0{fill:#FCB817;}
	.st1{fill:#4D525A;}
	.st2{fill:#FFFFFF;}
</style>
<path class="st0" d="M119.3,36.5c-0.2-6.8-4.8-13-11.6-15.7L69,5.8c-2.4-1-4.7-1.4-7.2-1.4c-2.5,0-5,0.5-7.2,1.4l-38.9,15
	C8.8,23.4,4.3,29.6,4.3,36.6v26.1c0,1.9,0.3,3.6,0.9,5.1c1.4,4,4.4,7.4,8.2,9.5l0.7,0.4h0.1l0.8,0.5h0.2c0.2,0.1,0.4,0.2,0.7,0.3
	l38.7,15c2.4,1,4.7,1.4,7.2,1.4c2.5,0,5-0.5,7.2-1.4l38.7-15c0.4-0.1,0.7-0.3,1.1-0.5c0.3-0.1,0.5-0.2,0.8-0.3l0.7-0.4
	c4-2.2,6.9-5.6,8.2-9.7c0.6-1.8,0.8-3.5,0.8-5v-26V36.5z"/>
<g>
	<g>
		<path class="st1" d="M27.5,49.8c0-11.4,4.2-19.8,12.4-25.9L16.2,33v33.2l23.7,9.1C32.5,68.9,27.5,60.3,27.5,49.8z"/>
		<path class="st1" d="M112.4,20.1L69.5,3.5l-3.2-1.8C65.2,1.1,63.6,0,61.7,0l0,0l0,0l0,0l0,0c-1.9,0-3.5,1.1-4.6,1.7l-3.2,1.7
			L11,20.1C4.3,22.7,0,28.5,0,35v29.3c0,6.5,4.3,12.3,10.9,14.9l41.6,16.1c0.9,0.4,0.7,0.3,1,0.5l3.7,2c1,0.5,2.7,1.5,4.3,1.6l0,0
			l0,0l0,0l0,0c1.7-0.2,3.3-1.1,4.3-1.6l3.7-2c0.3-0.2,0.2-0.1,1-0.5l41.6-16.1c6.6-2.6,10.9-8.4,10.9-14.9V34.9
			C123.4,28.5,119.1,22.6,112.4,20.1z M116.1,62.7c0,1.4-0.2,2.8-0.7,4.1c-1.3,3.9-4.5,7.2-8.8,8.9l-38.8,15c-2,0.8-4,1.2-6.1,1.2
			s-4.2-0.4-6.1-1.2l-38.8-15c-4.3-1.7-7.5-5-8.8-8.9c-0.4-1.3-0.7-2.7-0.7-4.1V36.6c0-5.6,3.7-10.7,9.5-13L55.6,8.5
			c2-0.8,4-1.2,6.1-1.2s4.2,0.4,6.1,1.2l38.8,15.1c5.8,2.2,9.5,7.3,9.5,13V62.7z"/>
		<path class="st1" d="M95.9,49.8c0-11.4-4.2-19.8-12.4-25.9l23.7,9.1v33.2l-23.7,9.1C91,68.9,95.9,60.3,95.9,49.8z"/>
		<path class="st1" d="M72,49.6L72,49.6L72,49.6l-0.1,0.2c-0.3,0.7-1,2.2-2.4,2.9h-9l5.1-25.3H47l-7.1,40.5h18.5l0,0h1.5l0,0h21.3
			h0.9l3.1-18.2L72,49.6z"/>
		<polygon class="st2" points="44.1,64.1 59.1,30.3 50.5,30.3 		"/>
	</g>
	<g>
		<g>
			<path class="st1" d="M453.7,64.5c-1.6,0-2.9-1.3-2.9-3c0-1.6,1.3-2.9,2.9-2.9s2.9,1.3,2.9,2.9C456.7,63.2,455.3,64.5,453.7,64.5z
				 M453.7,59.3c-1.3,0-2.2,1-2.2,2.3s1,2.3,2.2,2.3c1.3,0,2.2-1,2.2-2.3C456,60.3,455,59.3,453.7,59.3z M454.2,63.1l-0.6-1.2h-0.3
				v1.2h-0.7V60h1.3c0.6,0,1,0.5,1,1c0,0.4-0.3,0.7-0.6,0.8l0.7,1.3C455,63.1,454.2,63.1,454.2,63.1z M453.8,60.6h-0.5v0.8h0.5
				c0.3,0,0.4-0.2,0.4-0.4C454.3,60.8,454.1,60.6,453.8,60.6z"/>
		</g>
		<polygon class="st1" points="196.8,34.9 183.2,34.9 178,64.5 191.6,64.5 		"/>
		<polygon class="st1" points="246.6,40.4 241.1,34.9 216.5,34.9 215.2,42.3 232.8,42.3 231.6,48.8 218.6,48.8 218.6,48.8 213,48.8 
			215.5,34.9 201.9,34.9 196.7,64.5 210.3,64.5 211.6,56.7 212.7,56.7 212.7,56.7 239.2,56.7 244.8,51.2 		"/>
		<polygon class="st1" points="391.9,44.5 391.1,49.1 397.7,49.1 400.5,46.3 402.6,34.9 393.7,34.9 392.3,42.6 395.9,42.6 
			395.6,44.5 		"/>
		<polygon class="st1" points="172.7,64.5 174.2,56 153.8,56 157.5,34.9 144,34.9 138.8,64.5 		"/>
		<polygon class="st1" points="264.6,44.9 265.1,42.6 282.8,42.6 282.6,43.8 296.1,43.8 296.8,40 291.7,34.9 257.4,34.9 251.8,40.4 
			250.5,47.7 255.6,52.7 280.9,54.2 280.5,56.7 262.3,56.7 262.6,55.1 249,55.1 248.3,59.4 253.4,64.5 288.1,64.5 293.6,59 
			294.9,51.4 289.9,46.4 		"/>
		<polygon class="st1" points="312.6,57.1 313.3,53.2 335.3,53.2 336.7,45.8 314.6,45.8 315.2,42.3 339.8,42.3 341.2,34.9 303,34.9 
			297.8,64.5 336.1,64.5 337.4,57.1 		"/>
		<polygon class="st1" points="390.3,34.9 376,34.9 365,46.7 358.4,34.9 344.2,34.9 356.7,55.9 355.2,64.5 368.7,64.5 370.2,56.1 		
			"/>
		<polygon class="st1" points="451,43.8 451.7,40 446.6,34.9 412.3,34.9 406.7,40.4 405.4,47.7 410.5,52.8 435.8,54.2 435.3,56.7 
			417.2,56.7 417.5,55.1 403.9,55.1 403.2,59.4 408.3,64.5 443,64.5 448.5,59 449.8,51.4 444.8,46.4 419.5,44.9 420,42.6 
			437.7,42.6 437.5,43.8 		"/>
	</g>
</g>
</svg>
